<?xml version="1.0" encoding="iso-8859-1"?>
<!-- Generator: Adobe Illustrator 19.0.0, SVG Export Plug-In . SVG Version: 6.00 Build 0)  -->
<svg version="1.1" id="Layer_1" xmlns="http://www.w3.org/2000/svg" xmlns:xlink="http://www.w3.org/1999/xlink" x="0px" y="0px"
	 viewBox="0 0 512 512" style="enable-background:new 0 0 512 512;" xml:space="preserve">
<g>
	<g>
		<path d="M437.025,74.976C388.676,26.627,324.386,0,256,0S123.324,26.627,74.975,74.976C26.627,123.324,0,187.614,0,256
			s26.627,132.676,74.975,181.024C123.324,485.373,187.614,512,256,512s132.676-26.627,181.025-74.976
			C485.373,388.676,512,324.386,512,256S485.373,123.324,437.025,74.976z M425.828,425.828
			C380.469,471.185,320.156,496.165,256,496.165s-124.469-24.98-169.828-70.337C40.814,380.47,15.835,320.157,15.835,256
			S40.814,131.53,86.172,86.172C131.531,40.815,191.844,15.835,256,15.835s124.469,24.98,169.828,70.337
			c45.358,45.358,70.337,105.67,70.337,169.828S471.186,380.47,425.828,425.828z"/>
	</g>
</g>
<g>
	<g>
		<path d="M256,47.505c-29.499,0-58.009,6.048-84.738,17.974c-25.808,11.515-48.692,27.915-68.004,48.731
			C67.305,152.787,47.505,203.144,47.505,256c0,52.856,19.8,103.213,55.742,141.778c19.325,20.827,42.208,37.228,68.017,48.743
			c26.727,11.926,55.238,17.974,84.737,17.974c28.833,0,56.747-5.78,82.965-17.178c25.376-11.032,47.974-26.78,67.141-46.779
			c37.651-38.909,58.389-90.24,58.389-144.538C464.495,141.035,370.965,47.505,256,47.505z M394.699,389.554
			C358.172,427.669,308.914,448.66,256,448.66c-27.261,0-53.6-5.586-78.284-16.599c-23.848-10.641-44.997-25.798-62.874-45.065
			C81.631,351.358,63.34,304.836,63.34,256c0-48.836,18.291-95.358,51.515-131.008c17.864-19.254,39.013-34.412,62.861-45.053
			C202.4,68.926,228.739,63.34,256,63.34c106.233,0,192.66,86.427,192.66,192.66C448.66,306.167,429.506,353.586,394.699,389.554z"
			/>
	</g>
</g>
<g>
	<g>
		<rect x="248.082" y="76.536" width="15.835" height="47.505"/>
	</g>
</g>
<g>
	<g>
		<rect x="248.082" y="387.959" width="15.835" height="47.505"/>
	</g>
</g>
<g>
	<g>
		<rect x="393.237" y="248.082" width="42.227" height="15.835"/>
	</g>
</g>
<g>
	<g>
		<rect x="76.536" y="248.082" width="42.227" height="15.835"/>
	</g>
</g>
<g>
	<g>
		
			<rect x="131.956" y="128.031" transform="matrix(0.7071 -0.7071 0.7071 0.7071 -65.3997 142.9645)" width="15.835" height="44.792"/>
	</g>
</g>
<g>
	<g>
		
			<rect x="344.469" y="142.513" transform="matrix(0.7071 -0.7071 0.7071 0.7071 1.0818 303.4723)" width="44.792" height="15.835"/>
	</g>
</g>
<g>
	<g>
		
			<rect x="358.929" y="339.169" transform="matrix(0.7071 -0.7071 0.7071 0.7071 -148.2178 365.3007)" width="15.835" height="44.792"/>
	</g>
</g>
<g>
	<g>
		
			<rect x="117.499" y="353.654" transform="matrix(0.7071 -0.7071 0.7071 0.7071 -214.6952 204.8223)" width="44.792" height="15.835"/>
	</g>
</g>
<g>
	<g>
		<polygon points="263.918,247.443 263.918,150.433 248.082,150.433 248.082,254.001 324.298,330.217 335.496,319.02 		"/>
	</g>
</g>
<g>
</g>
<g>
</g>
<g>
</g>
<g>
</g>
<g>
</g>
<g>
</g>
<g>
</g>
<g>
</g>
<g>
</g>
<g>
</g>
<g>
</g>
<g>
</g>
<g>
</g>
<g>
</g>
<g>
</g>
</svg>
