<?xml version="1.0" encoding="utf-8"?>
<!-- Generator: Adobe Illustrator 24.1.2, SVG Export Plug-In . SVG Version: 6.00 Build 0)  -->
<svg version="1.1" id="Capa_1" xmlns="http://www.w3.org/2000/svg" xmlns:xlink="http://www.w3.org/1999/xlink" x="0px" y="0px"
	 viewBox="0 0 512 512" style="enable-background:new 0 0 512 512;" xml:space="preserve">
<style type="text/css">
	.st0{fill:#6CA09F;}
</style>
<path class="st0" d="M368.3,270c-11.3,11.3-66.5,66.5-78.8,78.8c-7.8,7.8-20.5,7.8-28.3,0c-7.8-7.8-7.8-20.5,0-28.3l44.5-44.5H157.3
	c-11,0-20-9-20-20s9-20,20-20h148.4l-44.5-44.5c-7.8-7.8-7.8-20.5,0-28.3s20.5-7.8,28.3,0c10.9,10.9,68.2,68.2,78.8,78.8
	C375.9,249.8,375.9,262.2,368.3,270z M512,148.4v215.3c0,68.4-46.4,103.1-49.4,107.4c-26.4,26.4-61.6,41-99,41H148.4
	c-37.4,0-72.6-14.6-99-41C46.4,466.8,0,432,0,363.6V148.4C0,80,46.4,45.3,49.4,41c26.4-26.4,61.6-41,99-41h215.3
	c37.4,0,72.6,14.6,99,41C465.6,45.2,512,80,512,148.4L512,148.4z M472,148.4c0-50.1-34.6-74.9-37.7-79.1c0,0,0,0,0,0
	c-18.9-18.9-44-29.3-70.7-29.3H148.4c-26.7,0-51.8,10.4-70.7,29.3C74.5,73.7,40,98,40,148.4v215.3c0,50.1,34.6,74.9,37.7,79.1
	c18.9,18.9,44,29.3,70.7,29.3h215.3c26.7,0,51.8-10.4,70.7-29.3c3.2-4.4,37.7-28.7,37.7-79.1V148.4z"/>
</svg>
