<?xml version="1.0" encoding="utf-8"?>
<!-- Generator: Adobe Illustrator 24.1.2, SVG Export Plug-In . SVG Version: 6.00 Build 0)  -->
<svg version="1.1" id="Capa_1" xmlns="http://www.w3.org/2000/svg" xmlns:xlink="http://www.w3.org/1999/xlink" x="0px" y="0px"
	 viewBox="0 0 512 512" style="enable-background:new 0 0 512 512;" xml:space="preserve">
<style type="text/css">
	.st0{fill:#6CA09F;}
</style>
<path class="st0" d="M374.7,256c0,11-9,20-20,20H206.3l44.5,44.5c7.8,7.8,7.8,20.5,0,28.3c-7.8,7.8-20.5,7.8-28.3,0l-78.7-78.7
	c-7.8-7.8-7.8-20.5,0-28.3l78.7-78.7c7.8-7.8,20.5-7.8,28.3,0c7.8,7.8,7.8,20.5,0,28.3L206.3,236h148.4
	C365.7,236,374.7,245,374.7,256z M512,148.4v215.3c0,68.4-46.4,103.1-49.4,107.4c-26.4,26.4-61.6,41-99,41H148.4
	c-37.4,0-72.6-14.6-99-41C46.4,466.8,0,432,0,363.6V148.4C0,80,46.4,45.3,49.4,41c26.4-26.4,61.6-41,99-41h215.3
	c37.4,0,72.6,14.6,99,41C465.6,45.2,512,80,512,148.4L512,148.4z M472,148.4c0-50.1-34.6-74.9-37.7-79.1
	c-18.9-18.9-44-29.3-70.7-29.3H148.4c-26.7,0-51.8,10.4-70.7,29.3C74.5,73.7,40,98,40,148.4v215.3c0,50.1,34.6,74.8,37.7,79.1
	c18.9,18.9,44,29.3,70.7,29.3h215.3c26.7,0,51.8-10.4,70.7-29.3c3.2-4.4,37.7-28.7,37.7-79.1V148.4z"/>
</svg>
