<svg id="Capa_1" enable-background="new 0 0 512 512" height="512" viewBox="0 0 512 512" width="512" xmlns="http://www.w3.org/2000/svg"><path d="m374.667 256c0 11.046-8.954 20-20 20h-148.383l44.524 44.524c7.811 7.811 7.811 20.475 0 28.285-7.812 7.811-20.474 7.809-28.284 0l-78.667-78.667c-7.822-7.824-7.802-20.481 0-28.285l78.667-78.667c7.811-7.809 20.474-7.81 28.284 0 7.811 7.811 7.811 20.475 0 28.285l-44.524 44.525h148.383c11.046 0 20 8.954 20 20zm137.333-107.628v215.256c0 68.38-46.371 103.106-49.378 107.367-26.44 26.443-61.598 41.005-98.994 41.005h-215.256c-37.396 0-72.553-14.563-98.995-41.006-2.976-4.217-49.377-38.98-49.377-107.366v-215.256c0-68.378 46.373-103.108 49.378-107.367 26.441-26.442 61.599-41.005 98.994-41.005h215.256c37.396 0 72.554 14.563 98.995 41.006 2.972 4.212 49.377 38.979 49.377 107.366zm-40 0c0-50.109-34.621-74.853-37.662-79.082-18.887-18.889-43.999-29.29-70.71-29.29h-215.256c-26.711 0-51.823 10.402-70.71 29.289-3.152 4.382-37.662 28.708-37.662 79.083v215.256c0 50.109 34.615 74.847 37.661 79.082 18.888 18.888 44 29.29 70.711 29.29h215.256c26.711 0 51.823-10.401 70.71-29.289 3.151-4.382 37.662-28.708 37.662-79.083z"/></svg>