<?xml version="1.0" encoding="utf-8"?>
<!-- Generator: Adobe Illustrator 24.1.2, SVG Export Plug-In . SVG Version: 6.00 Build 0)  -->
<svg version="1.1" id="Слой_1" xmlns="http://www.w3.org/2000/svg" xmlns:xlink="http://www.w3.org/1999/xlink" x="0px" y="0px"
	 viewBox="0 0 512 512" style="enable-background:new 0 0 512 512;" xml:space="preserve">
<style type="text/css">
	.st0{fill-rule:evenodd;clip-rule:evenodd;fill:#6CA09F;}
</style>
<g id="up">
	<path class="st0" d="M151.5,215.5l17,17L244,157v227h24V157l75.5,75.5l17-17L256,111L151.5,215.5z"/>
	<path class="st0" d="M412.8,20H99.2C55.5,20,20,55.5,20,99.2v313.6c0,43.7,35.5,79.2,79.2,79.2h313.6c43.7,0,79.2-35.5,79.2-79.2
		V99.2C492,55.5,456.5,20,412.8,20L412.8,20z M468,412.8c0,30.5-24.7,55.2-55.2,55.2H99.2C68.7,468,44,443.3,44,412.8V99.2
		C44,68.7,68.7,44,99.2,44h313.6c30.5,0,55.2,24.7,55.2,55.2V412.8z"/>
</g>
</svg>
