<?xml version="1.0" encoding="utf-8"?>
<!-- Generator: Adobe Illustrator 24.1.2, SVG Export Plug-In . SVG Version: 6.00 Build 0)  -->
<svg version="1.1" id="Capa_1" xmlns="http://www.w3.org/2000/svg" xmlns:xlink="http://www.w3.org/1999/xlink" x="0px" y="0px"
	 viewBox="0 0 512 512" style="enable-background:new 0 0 512 512;" xml:space="preserve">
<style type="text/css">
	.st0{fill:#6CA09F;}
</style>
<g>
	<g>
		<path class="st0" d="M407,0H105C47.1,0,0,47.1,0,105v302c0,57.9,47.1,105,105,105h302c57.9,0,105-47.1,105-105V105
			C512,47.1,464.9,0,407,0z M482,407c0,41.4-33.6,75-75,75H105c-41.4,0-75-33.6-75-75V105c0-41.4,33.6-75,75-75h302
			c41.4,0,75,33.6,75,75V407z"/>
	</g>
</g>
<g>
	<g>
		<path class="st0" d="M396,131H116c-16.5,0-30,13.5-30,30v170c0,16.5,13.5,30,30,30h280c16.5,0,30-13.5,30-30V161
			C426,144.5,412.5,131,396,131z M359.7,161L256,264.7L152.2,161H359.7z M116,167.2l78.8,78.8L116,324.8V167.2z M152.2,331
			l63.8-63.8l40,40l40-40l63.8,63.8H152.2z M317.2,246l78.8-78.8l0,157.7L317.2,246z"/>
	</g>
</g>
</svg>
