<?xml version="1.0" encoding="utf-8"?>
<!-- Generator: Adobe Illustrator 24.1.2, SVG Export Plug-In . SVG Version: 6.00 Build 0)  -->
<svg version="1.1" id="Слой_1" xmlns="http://www.w3.org/2000/svg" xmlns:xlink="http://www.w3.org/1999/xlink" x="0px" y="0px"
	 viewBox="0 0 1280 1280" style="enable-background:new 0 0 1280 1280;" xml:space="preserve">
<style type="text/css">
	.st0{fill:#6B6B6B;}
</style>
<g transform="translate(0.000000,1280.000000) scale(0.100000,-0.100000)">
	<path class="st0" d="M6100,12794c-25-2-112-8-195-14c-1286-94-2543-599-3555-1429C589,9906-269,7668,76,5420
		c270-1755,1275-3332,2760-4332C3887,380,5133,0,6400,0s2513,380,3564,1088c1460,982,2456,2522,2746,4245
		c420,2491-657,4980-2765,6392c-890,596-1891,948-2985,1051C6807,12790,6207,12803,6100,12794z M6926,12255
		c735-68,1408-257,2052-575c257-127,431-226,642-364c1125-741,1966-1844,2377-3116c339-1050,372-2206,93-3275
		c-222-851-615-1611-1196-2310c-144-174-544-572-724-722C9227,1111,8143,662,6915,544c-249-24-781-24-1030,0
		c-1229,118-2312,567-3255,1349c-187,155-582,551-736,737c-377,454-668,926-897,1457C508,5216,392,6505,672,7720
		c310,1349,1097,2553,2212,3388c805,603,1760,992,2751,1121c132,17,326,34,510,45C6273,12282,6773,12270,6926,12255z"/>
	<path class="st0" d="M6660,9688v-253l213-1c163-1,243-6,345-23c584-93,1084-352,1484-770c382-398,619-896,693-1456
		c10-70,17-200,17-313l2-192l250,2l251,3l-1,205c-1,289-27,489-99,765c-102,391-282,755-544,1100c-96,127-384,418-519,524
		c-467,368-1024,592-1621,651c-57,5-186,10-287,10h-184V9688z"/>
	<path class="st0" d="M6423,9014l-32-5l-3-248l-3-249l220-5c186-4,239-9,343-31c586-125,1070-494,1332-1015c145-288,203-533,204-858
		l1-193h254h253l-5,223c-5,246-20,360-72,563c-85,333-250,660-468,929c-87,107-290,304-405,393c-337,259-751,428-1182,482
		C6764,9012,6472,9021,6423,9014z"/>
	<path class="st0" d="M3760,8754c-131-15-227-56-365-158c-331-245-595-691-755-1274c-57-209-74-335-67-517c19-508,249-1090,702-1775
		c200-303,525-722,721-930c89-94,275-258,489-429c674-541,1355-918,1896-1050c183-44,324-62,494-62c169,0,258,13,456,67
		c673,182,1178,519,1374,918c40,80,47,104,56,196c10,87,9,124-4,211c-54,362-261,609-681,813c-424,207-751,249-991,129
		c-97-49-153-100-254-236c-170-227-308-341-501-409c-88-32-264-36-370-9c-102,25-259,100-355,169c-304,216-939,853-1179,1182
		c-58,80-149,264-171,345c-42,163-26,326,48,480c75,154,182,271,384,419c50,37,111,89,135,115c232,258,190,717-113,1251
		c-200,353-473,536-825,554C3835,8756,3779,8756,3760,8754z"/>
	<path class="st0" d="M6070,7806v-255l123,6c506,23,990-262,1207-711c95-196,131-354,131-576c0-82-2-154-3-162c-2-10,45-14,248-16
		l251-2l7,37c9,57,7,226-4,331c-86,816-713,1469-1521,1587c-63,9-175,15-273,15h-166V7806z"/>
</g>
</svg>
