<?xml version="1.0" standalone="no"?>
<!DOCTYPE svg PUBLIC "-//W3C//DTD SVG 20010904//EN"
 "http://www.w3.org/TR/2001/REC-SVG-20010904/DTD/svg10.dtd">
<svg version="1.0" xmlns="http://www.w3.org/2000/svg"
 width="215.000000pt" height="56.000000pt" viewBox="0 0 215.000000 56.000000"
 preserveAspectRatio="xMidYMid meet">

<g transform="translate(0.000000,56.000000) scale(0.100000,-0.100000)"
fill="#000000" stroke="none">
<path d="M0 280 l0 -280 1075 0 1075 0 0 280 0 280 -1075 0 -1075 0 0 -280z
m322 191 l92 -59 -36 -18 c-36 -17 -36 -17 -87 15 -28 17 -56 31 -61 31 -5 0
-32 -13 -58 -30 -57 -35 -69 -36 -100 -12 l-23 18 88 56 c48 31 89 57 91 57 1
1 43 -26 94 -58z m-165 -149 c61 -36 63 -38 63 -79 l0 -43 -55 35 c-30 19 -57
35 -60 35 -3 0 -5 -34 -5 -75 0 -41 -3 -75 -6 -75 -3 0 -19 8 -35 17 l-29 17
0 124 0 124 33 -21 c17 -12 60 -38 94 -59z m248 -179 c-14 -13 -30 -23 -36
-23 -5 0 -9 34 -9 75 0 41 -3 75 -8 75 -4 0 -31 -16 -60 -35 l-52 -36 0 43 1
43 92 57 92 57 3 -117 c3 -115 2 -117 -23 -139z m215 232 c0 -23 -4 -25 -45
-25 -38 0 -45 -3 -45 -20 0 -17 7 -20 40 -20 36 0 40 -2 40 -25 0 -22 -4 -25
-40 -25 -36 0 -40 -2 -40 -25 0 -23 4 -25 45 -25 41 0 45 -2 45 -25 0 -24 -2
-25 -75 -25 l-75 0 0 120 0 120 75 0 c73 0 75 -1 75 -25z m220 0 c0 -21 -5
-25 -30 -25 l-30 0 0 -95 0 -95 -30 0 -30 0 0 95 0 95 -30 0 c-25 0 -30 4 -30
25 0 25 1 25 90 25 89 0 90 0 90 -25z m176 -90 c30 -63 54 -117 54 -120 0 -13
-58 -3 -64 10 -4 11 -20 15 -56 15 -36 0 -52 -4 -56 -15 -5 -12 -64 -23 -64
-11 0 16 112 236 121 236 6 0 35 -52 65 -115z m244 91 c0 -22 -5 -25 -42 -28
-39 -3 -43 -6 -46 -30 -3 -27 -1 -28 37 -28 37 0 41 -3 41 -24 0 -21 -5 -25
-37 -28 -36 -3 -38 -5 -41 -41 -3 -34 -6 -37 -33 -37 l-29 0 0 120 0 120 75 0
c73 0 75 -1 75 -24z m231 7 c31 -18 59 -67 59 -102 0 -40 -28 -90 -62 -111
-110 -67 -233 54 -173 170 29 57 117 78 176 43z m270 -9 c27 -28 29 -86 5
-113 -18 -20 -18 -22 8 -61 l26 -40 -35 0 c-30 0 -39 5 -56 35 -12 20 -29 35
-40 35 -15 0 -19 -7 -19 -35 0 -32 -2 -35 -30 -35 l-30 0 0 121 0 121 75 -4
c59 -3 79 -8 96 -24z m149 -32 c25 -20 50 -39 55 -43 6 -5 39 14 75 42 35 27
65 49 67 49 2 0 3 -52 3 -115 l0 -115 -35 0 -35 0 0 50 c0 28 -2 50 -5 50 -3
0 -19 -10 -35 -22 l-30 -22 -23 22 c-13 12 -26 22 -30 22 -4 0 -7 -22 -7 -50
l0 -50 -35 0 -35 0 0 116 c0 128 -4 124 70 66z m-1690 -264 c0 -22 -3 -38 -7
-36 -5 2 -27 14 -50 28 -40 23 -43 28 -43 67 l0 43 50 -31 c47 -29 50 -33 50
-71z m111 18 c-5 -6 -28 -22 -50 -34 l-41 -23 0 39 c0 36 4 42 48 71 l47 31 3
-36 c2 -19 -1 -41 -7 -48z"/>
<path d="M932 271 c-11 -32 -7 -41 19 -41 25 0 31 15 18 44 -16 34 -25 33 -37
-3z"/>
<path d="M1386 329 c-52 -41 -25 -119 42 -119 59 0 82 71 37 115 -29 30 -45
31 -79 4z"/>
<path d="M1657 343 c-4 -3 -7 -19 -7 -35 0 -25 3 -28 34 -28 26 0 36 5 41 20
4 12 1 27 -5 35 -13 15 -51 20 -63 8z"/>
</g>
</svg>
