<svg id="Capa_1" enable-background="new 0 0 511.979 511.979" height="512" viewBox="0 0 511.979 511.979" width="512" xmlns="http://www.w3.org/2000/svg"><g><path d="m121.079 123.379c-17.676 17.677-17.676 46.437 0 64.113 17.676 17.675 46.436 17.674 64.112 0 17.676-17.677 17.676-46.437 0-64.112-17.713-17.716-46.393-17.721-64.112-.001zm53.505 53.506c-11.827 11.826-31.07 11.828-42.899 0-11.827-11.827-11.827-31.071 0-42.898 11.855-11.855 31.043-11.856 42.899 0 11.827 11.826 11.827 31.071 0 42.898z"/><path d="m185.191 415.678c17.676-17.677 17.676-46.437 0-64.112-17.712-17.715-46.393-17.721-64.112-.001-17.676 17.677-17.676 46.437 0 64.112 17.712 17.715 46.393 17.721 64.112.001zm-53.506-53.506c11.855-11.855 31.043-11.856 42.899 0 11.827 11.827 11.827 31.071 0 42.898-11.855 11.855-31.043 11.856-42.899 0-11.827-11.827-11.827-31.071 0-42.898z"/><path d="m60.542 269.528c0 24.997 20.337 45.334 45.334 45.334 24.998 0 45.334-20.337 45.334-45.334s-20.337-45.334-45.334-45.334-45.334 20.337-45.334 45.334zm75.668 0c0 16.727-13.608 30.334-30.334 30.334s-30.334-13.607-30.334-30.334 13.608-30.334 30.334-30.334 30.334 13.608 30.334 30.334z"/><path d="m267.228 476.214c24.997 0 45.334-20.337 45.334-45.334s-20.337-45.334-45.334-45.334c-24.998 0-45.334 20.337-45.334 45.334s20.336 45.334 45.334 45.334zm0-75.668c16.726 0 30.334 13.607 30.334 30.334s-13.608 30.334-30.334 30.334c-16.727 0-30.334-13.607-30.334-30.334s13.607-30.334 30.334-30.334z"/><path d="m267.228 153.511c24.997 0 45.334-20.337 45.334-45.334s-20.337-45.334-45.334-45.334c-24.998 0-45.334 20.337-45.334 45.334s20.336 45.334 45.334 45.334zm0-75.668c16.726 0 30.334 13.607 30.334 30.334s-13.608 30.334-30.334 30.334c-16.727 0-30.334-13.607-30.334-30.334s13.607-30.334 30.334-30.334z"/><path d="m480.233 325.442c-9.723-19.229-28.099-32.361-49.246-35.243l-.628-28.575c-.091-4.141-3.515-7.388-7.663-7.333-4.141.091-7.424 3.521-7.333 7.663l4.554 207.064c.332 15.431-9.909 27.96-22.427 27.96-9.633 0-17.866-7.404-21.039-17.766-.014-.049-.023-.099-.038-.149-.028-.094-.055-.175-.082-.264-1.06-3.643-1.23-4.758-1.067-18.929l6.198-281.783h32.057l1.075 48.874c.091 4.141 3.519 7.396 7.663 7.333 4.141-.091 7.424-3.521 7.333-7.663l-1.087-49.407c11.302-2.967 19.665-13.269 19.665-25.49 0-9.774-5.354-18.317-13.279-22.866 2.744-2.412 5.233-5.083 7.394-7.982 4.995-5.766 10.254-17.187 10.254-32.265 0-7.226-1.22-14.696-3.626-22.211-8.325-33.631-13.751-29.791-3.034-52.192.648-1.356.977-2.8.977-4.288 0-5.477-4.454-9.932-9.928-9.932-.866 0-1.733.114-2.566.336-41.153 10.907-64.151 27.683-76.893 44.129-28.758-11.522-59.115-17.38-90.283-17.38-64.938 0-125.944 25.354-171.78 71.39-45.675 45.878-70.83 106.626-70.83 171.055 0 88.014 47.345 165.718 118.241 208.16 3.556 2.127 8.16.969 10.287-2.583 2.127-3.555.971-8.16-2.583-10.288-66.312-39.693-110.945-112.489-110.945-195.288 0-60.435 23.603-117.424 66.459-160.471 43-43.188 100.231-66.974 161.15-66.974 28.316 0 55.922 5.137 82.13 15.271-6.038 12.766-8.724 25.997-6.3 40.3 1.852 12.187 7.757 22.872 17.166 31.162-8.726 4.976-13.823 14.327-13.335 24.23-7.199 14.509-10.996 30.679-10.996 46.916 0 26.964 10.109 52.476 28.54 72.198-.589 26.749-1.112 49.943-1.571 70.074-19.369 8.673-30.564 29.829-25.699 51.344 3.038 13.435 11.777 24.513 23.825 30.547-.366 16.488-.588 27.684-.678 35.493-.254 11.542-.395 10.928.282 17.382-29.127 13.076-61.281 19.966-93.375 19.966-29.845 0-58.912-5.717-86.395-16.992-3.832-1.573-8.213.26-9.786 4.092-1.572 3.832.26 8.213 4.092 9.785 29.298 12.021 60.281 18.115 92.088 18.115 33.695 0 67.448-7.139 98.132-20.678 6.534 12.375 18.512 20.689 32.186 20.689 20.892 0 37.936-19.43 37.423-43.282l-.519-23.599c17.786-16.943 32.795-36.25 44.627-57.446 10.734-19.226 11.186-42.482 1.213-62.209zm-58.417-162.355h-48.653c-5.664 0-10.359-4.175-11.203-9.606-.004-.029-.002-.059-.006-.088-1.038-7.083 4.518-13.009 11.209-13.009h48.653c6.259 0 11.352 5.093 11.352 11.352s-5.093 11.351-11.352 11.351zm12.742-92.313c8.657 26.732-2.269 47.375-22.899 54.609h-28.183c-12.838-4.5-22.724-14.879-25.49-29.142-4.508-26.149 10.309-59.653 69.984-78.447-7.191 19.069-.506 24.431 6.371 52.18zm-83.709 129.19c0-9.744 1.601-19.456 4.671-28.673 3.082 2.783 6.822 4.849 10.956 5.935l-1.565 71.176c-9.142-14.402-14.062-31.065-14.062-48.438zm.901 190.307c-2.579-11.404 1.534-23.063 10.664-30.377-.419 18.282-.783 33.96-1.071 46.569-4.748-4.157-8.141-9.772-9.593-16.192zm114.173-9.93c-8.835 15.826-19.559 30.538-31.988 43.904-.262-11.928-2.348-106.752-2.613-118.814 15.443 2.824 28.285 12.461 35.524 26.78 7.721 15.27 7.376 33.263-.923 48.13z"/></g></svg>