<svg height="512pt" viewBox="0 -2 512 511" width="512pt" xmlns="http://www.w3.org/2000/svg"><path d="m475.636719 374.230469h28.667969c4.25 0 7.695312-3.445313 7.695312-7.699219 0-4.25-3.445312-7.695312-7.695312-7.695312h-137.164063c-10.652344 0-19.320313-8.664063-19.320313-19.320313s8.664063-19.320313 19.320313-19.320313h24.835937c4.25 0 7.699219-3.445312 7.699219-7.695312 0-4.253906-3.449219-7.699219-7.699219-7.699219h-24.835937c-19.140625 0-34.714844 15.574219-34.714844 34.714844s15.574219 34.714844 34.714844 34.714844h92.207031c-14.253906 37.988281-50.789062 63.757812-92.117187 63.785156h-.070313c-.007812 0-.015625 0-.023437 0-54.277344-.011719-98.433594-44.140625-98.488281-98.402344 0-.03125.003906-.0625.003906-.09375v-.476562c.257812-54.101563 44.34375-98.035157 98.503906-98.035157 41.359375 0 77.921875 25.78125 92.1875 63.792969h-36.582031c-4.25 0-7.695313 3.445313-7.695313 7.699219 0 4.25 3.445313 7.695312 7.695313 7.695312h81.542969c4.25 0 7.695312-3.445312 7.695312-7.695312 0-4.253906-3.445312-7.699219-7.695312-7.699219h-28.671876c-14.953124-46.910156-58.71875-79.1875-108.476562-79.1875-41.996094 0-78.753906 22.851563-98.503906 56.769531v-148.667968c0-4.253906-3.445313-7.699219-7.695313-7.699219s-7.695312 3.445313-7.695312 7.699219v205.328125c0 .160156-.007813.316406-.007813.476562 0 62.796875 51.097656 113.890625 113.902344 113.890625h.074219 129.378906v38.328125h-131.042969c-83.0625 0-150.632812-67.574219-150.632812-150.632812v-325.210938h38.328125v87.03125c0 4.25 3.445312 7.695313 7.695312 7.695313 4.253907 0 7.699219-3.445313 7.699219-7.695313v-94.730469c0-4.25-3.445312-7.695312-7.699219-7.695312h-53.71875c-4.25 0-7.699219 3.445312-7.699219 7.695312v34.5c-16.582031-25.382812-45.242187-42.195312-77.761718-42.195312-51.1875 0-92.828125 41.640625-92.828125 92.824219 0 20.246093 6.40625 39.488281 18.523437 55.644531 9.632813 12.847656 22.628906 23.066406 37.273438 29.476562-22.960938 9.972657-40.96875 28.816407-49.835938 52.359376h-27.214844c-4.25 0-7.695312 3.445312-7.695312 7.695312s3.445312 7.695312 7.695312 7.695312h114.082032c9.589844 0 17.394531 7.800782 17.394531 17.390626 0 9.589843-7.804687 17.390624-17.394531 17.390624h-114.082032c-4.25 0-7.695312 3.449219-7.695312 7.699219s3.445312 7.695313 7.695312 7.695313h27.234376c6.207031 16.371094 17.125 30.964844 31.203124 41.519531 16.15625 12.113281 35.394532 18.515625 55.640626 18.515625 32.371093 0 61.132812-16.742188 77.765624-42.183594v26.882813c0 91.546875 74.480469 166.023437 166.027344 166.023437h138.738282c4.25 0 7.695312-3.445312 7.695312-7.695312v-53.722656c0-4.25-3.445312-7.695313-7.695312-7.695313h-79.980469c23.929687-13.886719 42.558593-36.324219 51.3125-63.785156zm-415.851563-234.496094c-10.101562-13.472656-15.441406-29.519531-15.441406-46.410156 0-42.695313 34.734375-77.433594 77.433594-77.433594 42.695312 0 77.429687 34.738281 77.429687 77.433594 0 30.597656-17.5625 57.613281-44.644531 70.179687v-70.175781c0-18.078125-14.707031-32.785156-32.785156-32.785156-18.007813 0-32.667969 14.597656-32.777344 32.578125 0 .070312-.007812.136718-.007812.203125v70.140625c-11.4375-5.378906-21.582032-13.566406-29.207032-23.730469zm79.386719-46.40625c0 9.589844-7.804687 17.390625-17.394531 17.390625s-17.390625-7.800781-17.390625-17.390625 7.800781-17.394531 17.390625-17.394531c9.589844.003906 17.394531 7.804687 17.394531 17.394531zm-50.179687 100.085937v37.390626h-37.386719c7.679687-16.472657 20.914062-29.707032 37.386719-37.390626zm32.785156 37.390626h-17.394532v-109.710938c5.046876 3.171875 11.007813 5.015625 17.394532 5.015625 6.386718 0 12.347656-1.839844 17.394531-5.011719v114.71875c-5.046875-3.171875-11.007813-5.011718-17.394531-5.011718zm77.269531 37.679687c-2.53125 40.671875-36.476563 72.53125-77.273437 72.53125-16.890626 0-32.9375-5.335937-46.40625-15.4375-10.167969-7.625-18.355469-17.769531-23.738282-29.207031h70.148438c18.078125 0 32.785156-14.707032 32.785156-32.78125v-70.15625c25.246094 11.855468 42.6875 36.867187 44.484375 65.136718.105469 1.707032.15625 3.394532.15625 5.015626.003906 1.746093-.046875 3.328124-.15625 4.898437zm-40.25-90.035156c14.648437-6.40625 27.652344-16.632813 37.285156-29.480469 1.21875-1.621094 2.359375-3.28125 3.457031-4.960938v69.046876c-9.808593-15.0625-23.898437-27.25-40.742187-34.605469zm0 0"/><path d="m322.902344 185.746094c1.96875 0 3.9375-.753906 5.441406-2.253906l27.730469-27.730469c3.003906-3.007813 3.003906-7.878907 0-10.882813-3.007813-3.007812-7.878907-3.007812-10.882813 0l-27.730468 27.726563c-3.007813 3.007812-3.007813 7.878906 0 10.886719 1.5 1.5 3.472656 2.253906 5.441406 2.253906zm0 0"/><path d="m334.425781 214.164062c1.238281 2.945313 4.09375 4.714844 7.097657 4.714844.996093 0 2.007812-.195312 2.980468-.605468l39.039063-16.421876c3.917969-1.648437 5.757812-6.160156 4.109375-10.078124-1.648438-3.917969-6.160156-5.757813-10.078125-4.109376l-39.035157 16.421876c-3.921874 1.648437-5.761718 6.160156-4.113281 10.078124zm0 0"/><path d="m286.785156 166.523438c.976563.410156 1.988282.605468 2.984375.605468 3.003907 0 5.859375-1.773437 7.097657-4.714844l16.421874-39.035156c1.648438-3.917968-.191406-8.429687-4.109374-10.078125-3.921876-1.648437-8.429688.191407-10.078126 4.109375l-16.421874 39.035156c-1.652344 3.917969.1875 8.429688 4.105468 10.078126zm0 0"/></svg>