<?xml version="1.0" encoding="UTF-8"?>
<svg xmlns="http://www.w3.org/2000/svg" id="Image" viewBox="0 0 32 32" width="512" height="512"><path d="M19,14H17a2,2,0,0,0-1.628.846l-2.52-3.778a3.149,3.149,0,0,0,.6-4.206L9.419.933A2.138,2.138,0,0,0,6.572.3L1.048,3.544A2.124,2.124,0,0,0,.332,6.516l3.821,5.992a3.155,3.155,0,0,0,3.831,1.278L8.8,15H6.441A3,3,0,0,0,3.6,17.051L.49,26.368a1.973,1.973,0,0,0,1.173,2.481l-.612,1.835a1,1,0,1,0,1.9.632L3.721,29h.661A1.991,1.991,0,0,0,6.171,27.9l1.454-2.91A1.986,1.986,0,0,0,9.171,23.9L10.618,21h4.66A1.993,1.993,0,0,0,17,22h2a2,2,0,0,0,2-2V16A2,2,0,0,0,19,14ZM5.84,11.433,2.019,5.44c.026-.1.069-.274.043-.172L7.586,2.019a.132.132,0,0,1,.18.039L11.8,7.986a1.166,1.166,0,0,1-.412,1.681L7.511,11.839A1.252,1.252,0,0,1,5.84,11.433Zm3.933,1.431,1.362-.763L13.07,15H11.2Zm-.944,7.241L7.382,23H7a1,1,0,0,0-.895.553L4.382,27H2.387l3.106-9.316A1,1,0,0,1,6.441,17H15v2H10.618A1.99,1.99,0,0,0,8.829,20.105ZM19,20H17V16h2Z"/><circle cx="23" cy="18" r="1"/><circle cx="31" cy="18" r="1"/><circle cx="31" cy="22" r="1"/><circle cx="31" cy="14" r="1"/><circle cx="27" cy="16" r="1"/><circle cx="27" cy="20" r="1"/></svg>
