<svg id="Layer_1" height="512" viewBox="0 0 128 128" width="512" xmlns="http://www.w3.org/2000/svg" data-name="Layer 1"><path d="m68.83 67.24 13.17-4.45a1 1 0 0 0 .68-.95v-5.84a1 1 0 0 0 -.62-.93l-13.16-5.36a.65.65 0 0 0 -.2 0 1 1 0 0 0 -.17 0h-5.53l-1.11-6.26 7.64-11s0-.07 0-.09a1.28 1.28 0 0 0 .11-.27 1.36 1.36 0 0 0 0-.35l-5.04-29.06a1 1 0 0 0 -.41-.68 1 1 0 0 0 -.75-.16l-26.44 4.72a1 1 0 0 0 -.65.41 1 1 0 0 0 -.16.74l5.11 28.93a1.26 1.26 0 0 0 .13.34l.06.07a1 1 0 0 0 .2.2l10.93 7.75.38 2.16-8.55-3.72a12.78 12.78 0 0 0 -6.28-1l-20.69 1.84a3.3 3.3 0 0 0 -3 3.31v2.34l-7.9 3a1 1 0 0 0 -.65.94v6.59a1 1 0 0 0 .51.87l9.77 5.46-7.36 42.3a5.57 5.57 0 0 0 1 4.19 5.51 5.51 0 0 0 3.65 2.27l16.17 2.61a2.7 2.7 0 0 0 .49 0 3 3 0 0 0 2-.73 3.07 3.07 0 0 0 1.08-2.34v-6.47l8.25-22.62 12.13-2.89a3.32 3.32 0 0 0 2.46-4.05l-3-11.78h15.43a1.25 1.25 0 0 0 .32-.04zm11.85-6.12-11.17 3.78v-12.79l11.17 4.53zm-27-17.79-8.9-6.33 21.77-3.85-6.21 9zm9.12-39.33.68 3.81-11.77 2.1a1 1 0 0 0 .18 2h.17l11.77-2.12 3.74 21.21-24.51 4.3-4.77-26.95zm-8.12 41.18 5.37-1 1 5.4h-2.38l-3.47-1.46zm-.68 35.39a1.35 1.35 0 0 1 -.83.61l-10.85 2.58 4.84-13.22a5 5 0 0 1 3.89-3.19l3.09 12.21a1.33 1.33 0 0 1 -.14 1.01zm13.51-15.28h-15.7a7 7 0 0 0 -6.52 4.56l-10.29 28.15a1 1 0 0 0 -.32-.12l-12.56-1.78a1 1 0 0 0 -.28 2l12.45 1.77-.82 2.24a1 1 0 0 0 -.23-.08l-12.52-1.78a1 1 0 0 0 -1.13.85 1 1 0 0 0 .84 1.13l12.35 1.77-.78 2.18a.74.74 0 0 0 -.14 0l-12.52-1.79a1 1 0 0 0 -.28 2l12.25 1.74v.06a1 1 0 0 0 -.06.34v6.65a1 1 0 0 1 -.38.82 1.07 1.07 0 0 1 -.86.24l-16.17-2.61a3.6 3.6 0 0 1 -3-4.15l7.46-43a1 1 0 0 0 -.5-1l-9.89-5.65v-5.31l7.9-3a1 1 0 0 0 .65-.93v-3a1.31 1.31 0 0 1 1.2-1.32l20.68-1.85a10.87 10.87 0 0 1 5.31.85l14.42 6.27a.9.9 0 0 0 .4.09h9z"/><path d="m42.87 65.29-5.47-.37a1 1 0 0 0 -.8.31l-11.9 12.84a1 1 0 0 0 -.24.45l-3.46 14.06a1 1 0 0 0 .73 1.21 1 1 0 0 0 .24 0 1 1 0 0 0 1-.76l3.39-13.82 11.4-12.3 5 .35a1 1 0 0 0 .13-2z"/><path d="m43.7 13.36 2.3-.36a1 1 0 1 0 -.35-2l-2.27.4a1 1 0 0 0 .17 2z"/><path d="m22 40.63a1 1 0 0 0 .09 2h.09l4.79-.43a1 1 0 0 0 .9-1.09 1 1 0 0 0 -1.08-.9z"/><path d="m16.24 117.37a1 1 0 0 0 -.75.19 1 1 0 0 0 -.39.66l-.84 5.78a1 1 0 0 0 .85 1.14l6.71 1h.18a1 1 0 0 0 1-.86l.84-5.81a1 1 0 0 0 -.18-.75 1 1 0 0 0 -.66-.39zm4.88 6.63-4.74-.68.56-3.84 4.73.69z"/><path d="m93.07 57.53h-3.44a1 1 0 0 0 0 2h3.44a1 1 0 0 0 0-2z"/><path d="m103.41 58.53a1 1 0 0 0 -1-1h-3.41a1 1 0 0 0 0 2h3.44a1 1 0 0 0 .97-1z"/><path d="m107.3 58.53a1 1 0 0 0 1 1h3.45a1 1 0 0 0 0-2h-3.45a1 1 0 0 0 -1 1z"/><path d="m122.09 58.53a1 1 0 0 0 -1-1h-3.45a1 1 0 0 0 0 2h3.45a1 1 0 0 0 1-1z"/><path d="m91.69 46.55-2.62 1.77a1 1 0 0 0 -.27 1.39 1 1 0 0 0 .83.44 1 1 0 0 0 .55-.17l2.63-1.77a1 1 0 1 0 -1.12-1.66z"/><path d="m98.81 41.75-2.62 1.77a1 1 0 0 0 .56 1.83 1 1 0 0 0 .55-.17l2.63-1.78a1 1 0 0 0 .27-1.4 1 1 0 0 0 -1.39-.25z"/><path d="m105.93 36.94-2.62 1.77a1 1 0 0 0 -.31 1.39 1 1 0 0 0 .83.44.94.94 0 0 0 .55-.17l2.63-1.77a1 1 0 0 0 -1.12-1.66z"/><path d="m114.44 32.41a1 1 0 0 0 -1.39-.27l-2.62 1.77a1 1 0 0 0 -.27 1.39 1 1 0 0 0 .83.44 1.07 1.07 0 0 0 .56-.17l2.62-1.77a1 1 0 0 0 .27-1.39z"/><path d="m113.05 84.92a1 1 0 0 0 .56.17 1 1 0 0 0 .83-.44 1 1 0 0 0 -.27-1.39l-2.62-1.77a1 1 0 0 0 -1.39.27 1 1 0 0 0 .27 1.38z"/><path d="m105.93 80.11a1 1 0 0 0 .56.17 1 1 0 0 0 .83-.44 1 1 0 0 0 -.27-1.39l-2.63-1.77a1 1 0 0 0 -1.11 1.66z"/><path d="m96.19 73.54 2.62 1.77a1 1 0 0 0 .56.17 1 1 0 0 0 .83-.44 1 1 0 0 0 -.27-1.39l-2.63-1.77a1 1 0 0 0 -1.38.27 1 1 0 0 0 .27 1.39z"/><path d="m90.18 67.08a1 1 0 1 0 -1.11 1.65l2.62 1.78a1 1 0 0 0 .56.17 1 1 0 0 0 .83-.44 1 1 0 0 0 -.27-1.39z"/><path d="m89.37 53a1 1 0 0 0 .25 2 1.15 1.15 0 0 0 .26 0l3.26-.86a1 1 0 1 0 -.51-1.93z"/><path d="m97.49 51.93a1 1 0 0 0 1 .74 1.15 1.15 0 0 0 .26 0l3.25-.86a1 1 0 1 0 -.5-1.93l-3.26.85a1 1 0 0 0 -.75 1.2z"/><path d="m110.28 47.52-3.25.86a1 1 0 0 0 -.72 1.22 1 1 0 0 0 1 .75.78.78 0 0 0 .26 0l3.25-.85a1 1 0 0 0 .71-1.22 1 1 0 0 0 -1.25-.76z"/><path d="m115.14 47.28a1 1 0 0 0 1 .74 1.07 1.07 0 0 0 .25 0l3.26-.85a1 1 0 0 0 .71-1.23 1 1 0 0 0 -1.22-.71l-3.25.86a1 1 0 0 0 -.75 1.19z"/><path d="m115.86 71 3.25.85a.78.78 0 0 0 .26 0 1 1 0 0 0 .25-2l-3.26-.86a1 1 0 1 0 -.5 1.94z"/><path d="m110.54 69.56a1 1 0 0 0 .25-2l-3.25-.86a1 1 0 0 0 -1.23.71 1 1 0 0 0 .72 1.22l3.25.86a1.15 1.15 0 0 0 .26.07z"/><path d="m101.71 67.24a1 1 0 0 0 .25-2l-3.25-.85a1 1 0 1 0 -.51 1.93l3.25.86z"/><path d="m93.85 64.17a1 1 0 0 0 -.72-1.17l-3.25-.86a1 1 0 0 0 -.51 1.86l3.26.86a1.07 1.07 0 0 0 .25 0 1 1 0 0 0 .97-.69z"/></svg>